<svg width="365" height="51" viewBox="0 0 365 51" fill="none" xmlns="http://www.w3.org/2000/svg">
<rect width="365" height="51" rx="25.5" fill="url(#paint0_linear_7_908)"/>
<path d="M145.479 21.236C144.963 21.236 144.501 21.338 144.093 21.542C143.697 21.746 143.361 22.04 143.085 22.424C142.809 22.796 142.599 23.252 142.455 23.792C142.323 24.332 142.257 24.938 142.257 25.61C142.257 26.522 142.365 27.302 142.581 27.95C142.809 28.586 143.163 29.072 143.643 29.408C144.123 29.744 144.735 29.912 145.479 29.912C146.007 29.912 146.529 29.852 147.045 29.732C147.573 29.612 148.143 29.444 148.755 29.228V31.514C148.191 31.742 147.633 31.91 147.081 32.018C146.529 32.126 145.911 32.18 145.227 32.18C143.907 32.18 142.815 31.91 141.951 31.37C141.099 30.818 140.469 30.05 140.061 29.066C139.653 28.07 139.449 26.912 139.449 25.592C139.449 24.62 139.581 23.732 139.845 22.928C140.109 22.112 140.493 21.41 140.997 20.822C141.513 20.234 142.143 19.778 142.887 19.454C143.643 19.13 144.507 18.968 145.479 18.968C146.115 18.968 146.751 19.052 147.387 19.22C148.035 19.376 148.653 19.592 149.241 19.868L148.359 22.082C147.879 21.854 147.393 21.656 146.901 21.488C146.421 21.32 145.947 21.236 145.479 21.236ZM155.302 21.974C156.622 21.974 157.63 22.262 158.326 22.838C159.034 23.402 159.388 24.272 159.388 25.448V32H157.516L156.994 30.668H156.922C156.646 31.016 156.358 31.304 156.058 31.532C155.77 31.76 155.434 31.922 155.05 32.018C154.678 32.126 154.216 32.18 153.664 32.18C153.088 32.18 152.566 32.072 152.098 31.856C151.642 31.628 151.282 31.286 151.018 30.83C150.754 30.362 150.622 29.774 150.622 29.066C150.622 28.022 150.988 27.254 151.72 26.762C152.452 26.258 153.55 25.982 155.014 25.934L156.724 25.88V25.448C156.724 24.932 156.586 24.554 156.31 24.314C156.046 24.074 155.674 23.954 155.194 23.954C154.714 23.954 154.246 24.026 153.79 24.17C153.334 24.302 152.878 24.47 152.422 24.674L151.54 22.856C152.068 22.58 152.65 22.364 153.286 22.208C153.934 22.052 154.606 21.974 155.302 21.974ZM155.68 27.482C154.816 27.506 154.216 27.662 153.88 27.95C153.544 28.238 153.376 28.616 153.376 29.084C153.376 29.492 153.496 29.786 153.736 29.966C153.976 30.134 154.288 30.218 154.672 30.218C155.248 30.218 155.734 30.05 156.13 29.714C156.526 29.366 156.724 28.88 156.724 28.256V27.446L155.68 27.482ZM165.247 32.18C164.155 32.18 163.261 31.754 162.565 30.902C161.881 30.038 161.539 28.772 161.539 27.104C161.539 25.424 161.887 24.152 162.583 23.288C163.279 22.424 164.191 21.992 165.319 21.992C165.787 21.992 166.201 22.058 166.561 22.19C166.921 22.31 167.227 22.478 167.479 22.694C167.743 22.91 167.965 23.156 168.145 23.432H168.235C168.199 23.24 168.157 22.964 168.109 22.604C168.061 22.232 168.037 21.854 168.037 21.47V18.32H170.719V32H168.667L168.145 30.722H168.037C167.869 30.986 167.653 31.232 167.389 31.46C167.137 31.676 166.837 31.85 166.489 31.982C166.141 32.114 165.727 32.18 165.247 32.18ZM166.183 30.038C166.927 30.038 167.449 29.822 167.749 29.39C168.049 28.946 168.205 28.286 168.217 27.41V27.122C168.217 26.162 168.067 25.43 167.767 24.926C167.479 24.422 166.939 24.17 166.147 24.17C165.559 24.17 165.097 24.428 164.761 24.944C164.425 25.448 164.257 26.18 164.257 27.14C164.257 28.1 164.425 28.826 164.761 29.318C165.097 29.798 165.571 30.038 166.183 30.038ZM177.556 21.974C178.876 21.974 179.884 22.262 180.58 22.838C181.288 23.402 181.642 24.272 181.642 25.448V32H179.77L179.248 30.668H179.176C178.9 31.016 178.612 31.304 178.312 31.532C178.024 31.76 177.688 31.922 177.304 32.018C176.932 32.126 176.47 32.18 175.918 32.18C175.342 32.18 174.82 32.072 174.352 31.856C173.896 31.628 173.536 31.286 173.272 30.83C173.008 30.362 172.876 29.774 172.876 29.066C172.876 28.022 173.242 27.254 173.974 26.762C174.706 26.258 175.804 25.982 177.268 25.934L178.978 25.88V25.448C178.978 24.932 178.84 24.554 178.564 24.314C178.3 24.074 177.928 23.954 177.448 23.954C176.968 23.954 176.5 24.026 176.044 24.17C175.588 24.302 175.132 24.47 174.676 24.674L173.794 22.856C174.322 22.58 174.904 22.364 175.54 22.208C176.188 22.052 176.86 21.974 177.556 21.974ZM177.934 27.482C177.07 27.506 176.47 27.662 176.134 27.95C175.798 28.238 175.63 28.616 175.63 29.084C175.63 29.492 175.75 29.786 175.99 29.966C176.23 30.134 176.542 30.218 176.926 30.218C177.502 30.218 177.988 30.05 178.384 29.714C178.78 29.366 178.978 28.88 178.978 28.256V27.446L177.934 27.482ZM191.245 29.084C191.245 29.744 191.089 30.308 190.777 30.776C190.465 31.232 189.997 31.58 189.373 31.82C188.749 32.06 187.975 32.18 187.051 32.18C186.367 32.18 185.779 32.132 185.287 32.036C184.795 31.952 184.303 31.808 183.811 31.604V29.39C184.339 29.63 184.909 29.828 185.521 29.984C186.133 30.14 186.673 30.218 187.141 30.218C187.669 30.218 188.041 30.14 188.257 29.984C188.485 29.828 188.599 29.624 188.599 29.372C188.599 29.204 188.551 29.054 188.455 28.922C188.371 28.79 188.179 28.64 187.879 28.472C187.579 28.304 187.111 28.088 186.475 27.824C185.863 27.56 185.359 27.302 184.963 27.05C184.567 26.786 184.273 26.474 184.081 26.114C183.889 25.742 183.793 25.28 183.793 24.728C183.793 23.816 184.147 23.132 184.855 22.676C185.563 22.22 186.505 21.992 187.681 21.992C188.293 21.992 188.875 22.052 189.427 22.172C189.979 22.292 190.549 22.49 191.137 22.766L190.327 24.692C190.003 24.548 189.691 24.422 189.391 24.314C189.091 24.206 188.797 24.122 188.509 24.062C188.233 24.002 187.945 23.972 187.645 23.972C187.249 23.972 186.949 24.026 186.745 24.134C186.553 24.242 186.457 24.404 186.457 24.62C186.457 24.776 186.505 24.92 186.601 25.052C186.709 25.172 186.907 25.304 187.195 25.448C187.495 25.592 187.933 25.784 188.509 26.024C189.073 26.252 189.559 26.492 189.967 26.744C190.375 26.984 190.687 27.29 190.903 27.662C191.131 28.022 191.245 28.496 191.245 29.084ZM197.475 30.038C197.775 30.038 198.063 30.008 198.339 29.948C198.615 29.888 198.891 29.816 199.167 29.732V31.73C198.879 31.85 198.519 31.952 198.087 32.036C197.667 32.132 197.205 32.18 196.701 32.18C196.113 32.18 195.585 32.084 195.117 31.892C194.661 31.7 194.295 31.37 194.019 30.902C193.755 30.422 193.623 29.762 193.623 28.922V24.188H192.345V23.054L193.821 22.154L194.595 20.084H196.305V22.172H199.059V24.188H196.305V28.922C196.305 29.294 196.413 29.576 196.629 29.768C196.845 29.948 197.127 30.038 197.475 30.038ZM206.629 21.992C206.761 21.992 206.917 21.998 207.097 22.01C207.277 22.022 207.421 22.04 207.529 22.064L207.331 24.584C207.247 24.56 207.121 24.542 206.953 24.53C206.797 24.506 206.659 24.494 206.539 24.494C206.191 24.494 205.855 24.542 205.531 24.638C205.207 24.722 204.913 24.86 204.649 25.052C204.397 25.244 204.193 25.502 204.037 25.826C203.893 26.138 203.821 26.528 203.821 26.996V32H201.139V22.172H203.173L203.569 23.828H203.695C203.887 23.492 204.127 23.186 204.415 22.91C204.703 22.634 205.033 22.412 205.405 22.244C205.789 22.076 206.197 21.992 206.629 21.992ZM212.994 21.974C214.314 21.974 215.322 22.262 216.018 22.838C216.726 23.402 217.08 24.272 217.08 25.448V32H215.208L214.686 30.668H214.614C214.338 31.016 214.05 31.304 213.75 31.532C213.462 31.76 213.126 31.922 212.742 32.018C212.37 32.126 211.908 32.18 211.356 32.18C210.78 32.18 210.258 32.072 209.79 31.856C209.334 31.628 208.974 31.286 208.71 30.83C208.446 30.362 208.314 29.774 208.314 29.066C208.314 28.022 208.68 27.254 209.412 26.762C210.144 26.258 211.242 25.982 212.706 25.934L214.416 25.88V25.448C214.416 24.932 214.278 24.554 214.002 24.314C213.738 24.074 213.366 23.954 212.886 23.954C212.406 23.954 211.938 24.026 211.482 24.17C211.026 24.302 210.57 24.47 210.114 24.674L209.232 22.856C209.76 22.58 210.342 22.364 210.978 22.208C211.626 22.052 212.298 21.974 212.994 21.974ZM213.372 27.482C212.508 27.506 211.908 27.662 211.572 27.95C211.236 28.238 211.068 28.616 211.068 29.084C211.068 29.492 211.188 29.786 211.428 29.966C211.668 30.134 211.98 30.218 212.364 30.218C212.94 30.218 213.426 30.05 213.822 29.714C214.218 29.366 214.416 28.88 214.416 28.256V27.446L213.372 27.482ZM225.315 21.992C225.447 21.992 225.603 21.998 225.783 22.01C225.963 22.022 226.107 22.04 226.215 22.064L226.017 24.584C225.933 24.56 225.807 24.542 225.639 24.53C225.483 24.506 225.345 24.494 225.225 24.494C224.877 24.494 224.541 24.542 224.217 24.638C223.893 24.722 223.599 24.86 223.335 25.052C223.083 25.244 222.879 25.502 222.723 25.826C222.579 26.138 222.507 26.528 222.507 26.996V32H219.825V22.172H221.859L222.255 23.828H222.381C222.573 23.492 222.813 23.186 223.101 22.91C223.389 22.634 223.719 22.412 224.091 22.244C224.475 22.076 224.883 21.992 225.315 21.992Z" fill="white"/>
<defs>
<linearGradient id="paint0_linear_7_908" x1="5.16499e-07" y1="26" x2="365" y2="26" gradientUnits="userSpaceOnUse">
<stop stop-color="#FF6489"/>
<stop offset="1" stop-color="#F9B24E"/>
</linearGradient>
</defs>
</svg>
