<svg width="365" height="51" viewBox="0 0 365 51" fill="none" xmlns="http://www.w3.org/2000/svg">
<rect width="365" height="51" rx="25.5" fill="url(#paint0_linear_36_404)"/>
<path d="M144.363 21.236C143.847 21.236 143.385 21.338 142.977 21.542C142.581 21.746 142.245 22.04 141.969 22.424C141.693 22.796 141.483 23.252 141.339 23.792C141.207 24.332 141.141 24.938 141.141 25.61C141.141 26.522 141.249 27.302 141.465 27.95C141.693 28.586 142.047 29.072 142.527 29.408C143.007 29.744 143.619 29.912 144.363 29.912C144.891 29.912 145.413 29.852 145.929 29.732C146.457 29.612 147.027 29.444 147.639 29.228V31.514C147.075 31.742 146.517 31.91 145.965 32.018C145.413 32.126 144.795 32.18 144.111 32.18C142.791 32.18 141.699 31.91 140.835 31.37C139.983 30.818 139.353 30.05 138.945 29.066C138.537 28.07 138.333 26.912 138.333 25.592C138.333 24.62 138.465 23.732 138.729 22.928C138.993 22.112 139.377 21.41 139.881 20.822C140.397 20.234 141.027 19.778 141.771 19.454C142.527 19.13 143.391 18.968 144.363 18.968C144.999 18.968 145.635 19.052 146.271 19.22C146.919 19.376 147.537 19.592 148.125 19.868L147.243 22.082C146.763 21.854 146.277 21.656 145.785 21.488C145.305 21.32 144.831 21.236 144.363 21.236ZM159.082 27.068C159.082 27.884 158.968 28.61 158.74 29.246C158.524 29.882 158.206 30.422 157.786 30.866C157.378 31.298 156.88 31.628 156.292 31.856C155.704 32.072 155.038 32.18 154.294 32.18C153.61 32.18 152.974 32.072 152.386 31.856C151.81 31.628 151.312 31.298 150.892 30.866C150.472 30.422 150.142 29.882 149.902 29.246C149.674 28.61 149.56 27.884 149.56 27.068C149.56 25.976 149.752 25.058 150.136 24.314C150.52 23.558 151.072 22.982 151.792 22.586C152.512 22.19 153.364 21.992 154.348 21.992C155.272 21.992 156.088 22.19 156.796 22.586C157.504 22.982 158.062 23.558 158.47 24.314C158.878 25.058 159.082 25.976 159.082 27.068ZM152.296 27.068C152.296 27.716 152.362 28.262 152.494 28.706C152.638 29.138 152.86 29.468 153.16 29.696C153.46 29.912 153.85 30.02 154.33 30.02C154.81 30.02 155.194 29.912 155.482 29.696C155.782 29.468 155.998 29.138 156.13 28.706C156.274 28.262 156.346 27.716 156.346 27.068C156.346 26.42 156.274 25.88 156.13 25.448C155.998 25.016 155.782 24.692 155.482 24.476C155.182 24.26 154.792 24.152 154.312 24.152C153.604 24.152 153.088 24.398 152.764 24.89C152.452 25.37 152.296 26.096 152.296 27.068ZM166.879 21.992C167.935 21.992 168.781 22.28 169.417 22.856C170.053 23.42 170.371 24.332 170.371 25.592V32H167.689V26.258C167.689 25.55 167.563 25.022 167.311 24.674C167.059 24.314 166.657 24.134 166.105 24.134C165.289 24.134 164.731 24.416 164.431 24.98C164.131 25.532 163.981 26.33 163.981 27.374V32H161.299V22.172H163.351L163.711 23.432H163.855C164.071 23.096 164.335 22.826 164.647 22.622C164.959 22.406 165.307 22.25 165.691 22.154C166.075 22.046 166.471 21.992 166.879 21.992ZM177.269 30.038C177.569 30.038 177.857 30.008 178.133 29.948C178.409 29.888 178.685 29.816 178.961 29.732V31.73C178.673 31.85 178.313 31.952 177.881 32.036C177.461 32.132 176.999 32.18 176.495 32.18C175.907 32.18 175.379 32.084 174.911 31.892C174.455 31.7 174.089 31.37 173.813 30.902C173.549 30.422 173.417 29.762 173.417 28.922V24.188H172.139V23.054L173.615 22.154L174.389 20.084H176.099V22.172H178.853V24.188H176.099V28.922C176.099 29.294 176.207 29.576 176.423 29.768C176.639 29.948 176.921 30.038 177.269 30.038ZM183.615 22.172V32H180.933V22.172H183.615ZM182.283 18.32C182.679 18.32 183.021 18.416 183.309 18.608C183.597 18.788 183.741 19.13 183.741 19.634C183.741 20.126 183.597 20.468 183.309 20.66C183.021 20.852 182.679 20.948 182.283 20.948C181.875 20.948 181.527 20.852 181.239 20.66C180.963 20.468 180.825 20.126 180.825 19.634C180.825 19.13 180.963 18.788 181.239 18.608C181.527 18.416 181.875 18.32 182.283 18.32ZM191.998 21.992C193.054 21.992 193.9 22.28 194.536 22.856C195.172 23.42 195.49 24.332 195.49 25.592V32H192.808V26.258C192.808 25.55 192.682 25.022 192.43 24.674C192.178 24.314 191.776 24.134 191.224 24.134C190.408 24.134 189.85 24.416 189.55 24.98C189.25 25.532 189.1 26.33 189.1 27.374V32H186.418V22.172H188.47L188.83 23.432H188.974C189.19 23.096 189.454 22.826 189.766 22.622C190.078 22.406 190.426 22.25 190.81 22.154C191.194 22.046 191.59 21.992 191.998 21.992ZM207.266 22.172V32H205.214L204.854 30.74H204.71C204.506 31.076 204.242 31.352 203.918 31.568C203.606 31.772 203.258 31.922 202.874 32.018C202.49 32.126 202.094 32.18 201.686 32.18C200.99 32.18 200.378 32.054 199.85 31.802C199.322 31.55 198.914 31.16 198.626 30.632C198.338 30.104 198.194 29.42 198.194 28.58V22.172H200.876V27.914C200.876 28.61 201.002 29.138 201.254 29.498C201.506 29.858 201.908 30.038 202.46 30.038C203.012 30.038 203.438 29.912 203.738 29.66C204.05 29.408 204.266 29.042 204.386 28.562C204.518 28.082 204.584 27.494 204.584 26.798V22.172H207.266ZM214.11 21.974C215.43 21.974 216.438 22.262 217.134 22.838C217.842 23.402 218.196 24.272 218.196 25.448V32H216.324L215.802 30.668H215.73C215.454 31.016 215.166 31.304 214.866 31.532C214.578 31.76 214.242 31.922 213.858 32.018C213.486 32.126 213.024 32.18 212.472 32.18C211.896 32.18 211.374 32.072 210.906 31.856C210.45 31.628 210.09 31.286 209.826 30.83C209.562 30.362 209.43 29.774 209.43 29.066C209.43 28.022 209.796 27.254 210.528 26.762C211.26 26.258 212.358 25.982 213.822 25.934L215.532 25.88V25.448C215.532 24.932 215.394 24.554 215.118 24.314C214.854 24.074 214.482 23.954 214.002 23.954C213.522 23.954 213.054 24.026 212.598 24.17C212.142 24.302 211.686 24.47 211.23 24.674L210.348 22.856C210.876 22.58 211.458 22.364 212.094 22.208C212.742 22.052 213.414 21.974 214.11 21.974ZM214.488 27.482C213.624 27.506 213.024 27.662 212.688 27.95C212.352 28.238 212.184 28.616 212.184 29.084C212.184 29.492 212.304 29.786 212.544 29.966C212.784 30.134 213.096 30.218 213.48 30.218C214.056 30.218 214.542 30.05 214.938 29.714C215.334 29.366 215.532 28.88 215.532 28.256V27.446L214.488 27.482ZM226.431 21.992C226.563 21.992 226.719 21.998 226.899 22.01C227.079 22.022 227.223 22.04 227.331 22.064L227.133 24.584C227.049 24.56 226.923 24.542 226.755 24.53C226.599 24.506 226.461 24.494 226.341 24.494C225.993 24.494 225.657 24.542 225.333 24.638C225.009 24.722 224.715 24.86 224.451 25.052C224.199 25.244 223.995 25.502 223.839 25.826C223.695 26.138 223.623 26.528 223.623 26.996V32H220.941V22.172H222.975L223.371 23.828H223.497C223.689 23.492 223.929 23.186 224.217 22.91C224.505 22.634 224.835 22.412 225.207 22.244C225.591 22.076 225.999 21.992 226.431 21.992Z" fill="white"/>
<defs>
<linearGradient id="paint0_linear_36_404" x1="5.16499e-07" y1="26" x2="365" y2="26" gradientUnits="userSpaceOnUse">
<stop stop-color="#FF6489"/>
<stop offset="1" stop-color="#F9B24E"/>
</linearGradient>
</defs>
</svg>
