<svg width="365" height="51" viewBox="0 0 365 51" fill="none" xmlns="http://www.w3.org/2000/svg">
<path d="M118.813 21.236C118.297 21.236 117.835 21.338 117.427 21.542C117.031 21.746 116.695 22.04 116.419 22.424C116.143 22.796 115.933 23.252 115.789 23.792C115.657 24.332 115.591 24.938 115.591 25.61C115.591 26.522 115.699 27.302 115.915 27.95C116.143 28.586 116.497 29.072 116.977 29.408C117.457 29.744 118.069 29.912 118.813 29.912C119.341 29.912 119.863 29.852 120.379 29.732C120.907 29.612 121.477 29.444 122.089 29.228V31.514C121.525 31.742 120.967 31.91 120.415 32.018C119.863 32.126 119.245 32.18 118.561 32.18C117.241 32.18 116.149 31.91 115.285 31.37C114.433 30.818 113.803 30.05 113.395 29.066C112.987 28.07 112.783 26.912 112.783 25.592C112.783 24.62 112.915 23.732 113.179 22.928C113.443 22.112 113.827 21.41 114.331 20.822C114.847 20.234 115.477 19.778 116.221 19.454C116.977 19.13 117.841 18.968 118.813 18.968C119.449 18.968 120.085 19.052 120.721 19.22C121.369 19.376 121.987 19.592 122.575 19.868L121.693 22.082C121.213 21.854 120.727 21.656 120.235 21.488C119.755 21.32 119.281 21.236 118.813 21.236ZM130.094 21.992C130.226 21.992 130.382 21.998 130.562 22.01C130.742 22.022 130.886 22.04 130.994 22.064L130.796 24.584C130.712 24.56 130.586 24.542 130.418 24.53C130.262 24.506 130.124 24.494 130.004 24.494C129.656 24.494 129.32 24.542 128.996 24.638C128.672 24.722 128.378 24.86 128.114 25.052C127.862 25.244 127.658 25.502 127.502 25.826C127.358 26.138 127.286 26.528 127.286 26.996V32H124.604V22.172H126.638L127.034 23.828H127.16C127.352 23.492 127.592 23.186 127.88 22.91C128.168 22.634 128.498 22.412 128.87 22.244C129.254 22.076 129.662 21.992 130.094 21.992ZM135.46 22.172V32H132.778V22.172H135.46ZM134.128 18.32C134.524 18.32 134.866 18.416 135.154 18.608C135.442 18.788 135.586 19.13 135.586 19.634C135.586 20.126 135.442 20.468 135.154 20.66C134.866 20.852 134.524 20.948 134.128 20.948C133.72 20.948 133.372 20.852 133.084 20.66C132.808 20.468 132.67 20.126 132.67 19.634C132.67 19.13 132.808 18.788 133.084 18.608C133.372 18.416 133.72 18.32 134.128 18.32ZM142.312 21.992C143.224 21.992 144.004 22.166 144.652 22.514C145.312 22.862 145.822 23.366 146.182 24.026C146.542 24.686 146.722 25.496 146.722 26.456V27.752H140.386C140.41 28.508 140.632 29.102 141.052 29.534C141.484 29.966 142.078 30.182 142.834 30.182C143.47 30.182 144.046 30.122 144.562 30.002C145.078 29.87 145.612 29.672 146.164 29.408V31.478C145.684 31.718 145.174 31.892 144.634 32C144.106 32.12 143.464 32.18 142.708 32.18C141.724 32.18 140.854 32 140.098 31.64C139.342 31.268 138.748 30.71 138.316 29.966C137.884 29.222 137.668 28.286 137.668 27.158C137.668 26.006 137.86 25.052 138.244 24.296C138.64 23.528 139.186 22.952 139.882 22.568C140.578 22.184 141.388 21.992 142.312 21.992ZM142.33 23.9C141.814 23.9 141.382 24.068 141.034 24.404C140.698 24.74 140.5 25.262 140.44 25.97H144.202C144.202 25.574 144.13 25.22 143.986 24.908C143.854 24.596 143.65 24.35 143.374 24.17C143.098 23.99 142.75 23.9 142.33 23.9ZM162.591 22.172V32H160.539L160.179 30.74H160.035C159.831 31.076 159.567 31.352 159.243 31.568C158.931 31.772 158.583 31.922 158.199 32.018C157.815 32.126 157.419 32.18 157.011 32.18C156.315 32.18 155.703 32.054 155.175 31.802C154.647 31.55 154.239 31.16 153.951 30.632C153.663 30.104 153.519 29.42 153.519 28.58V22.172H156.201V27.914C156.201 28.61 156.327 29.138 156.579 29.498C156.831 29.858 157.233 30.038 157.785 30.038C158.337 30.038 158.763 29.912 159.063 29.66C159.375 29.408 159.591 29.042 159.711 28.562C159.843 28.082 159.909 27.494 159.909 26.798V22.172H162.591ZM176.941 21.992C178.057 21.992 178.897 22.28 179.461 22.856C180.037 23.42 180.325 24.332 180.325 25.592V32H177.643V26.258C177.643 25.55 177.523 25.022 177.283 24.674C177.043 24.314 176.671 24.134 176.167 24.134C175.459 24.134 174.955 24.386 174.655 24.89C174.355 25.394 174.205 26.12 174.205 27.068V32H171.523V26.258C171.523 25.79 171.469 25.4 171.361 25.088C171.253 24.776 171.091 24.542 170.875 24.386C170.659 24.218 170.383 24.134 170.047 24.134C169.555 24.134 169.165 24.26 168.877 24.512C168.589 24.764 168.385 25.13 168.265 25.61C168.145 26.09 168.085 26.678 168.085 27.374V32H165.403V22.172H167.455L167.815 23.432H167.959C168.163 23.096 168.415 22.826 168.715 22.622C169.015 22.406 169.345 22.25 169.705 22.154C170.077 22.046 170.449 21.992 170.821 21.992C171.541 21.992 172.153 22.112 172.657 22.352C173.161 22.58 173.545 22.94 173.809 23.432H174.043C174.343 22.928 174.757 22.562 175.285 22.334C175.825 22.106 176.377 21.992 176.941 21.992ZM187.119 21.974C188.439 21.974 189.447 22.262 190.143 22.838C190.851 23.402 191.205 24.272 191.205 25.448V32H189.333L188.811 30.668H188.739C188.463 31.016 188.175 31.304 187.875 31.532C187.587 31.76 187.251 31.922 186.867 32.018C186.495 32.126 186.033 32.18 185.481 32.18C184.905 32.18 184.383 32.072 183.915 31.856C183.459 31.628 183.099 31.286 182.835 30.83C182.571 30.362 182.439 29.774 182.439 29.066C182.439 28.022 182.805 27.254 183.537 26.762C184.269 26.258 185.367 25.982 186.831 25.934L188.541 25.88V25.448C188.541 24.932 188.403 24.554 188.127 24.314C187.863 24.074 187.491 23.954 187.011 23.954C186.531 23.954 186.063 24.026 185.607 24.17C185.151 24.302 184.695 24.47 184.239 24.674L183.357 22.856C183.885 22.58 184.467 22.364 185.103 22.208C185.751 22.052 186.423 21.974 187.119 21.974ZM187.497 27.482C186.633 27.506 186.033 27.662 185.697 27.95C185.361 28.238 185.193 28.616 185.193 29.084C185.193 29.492 185.313 29.786 185.553 29.966C185.793 30.134 186.105 30.218 186.489 30.218C187.065 30.218 187.551 30.05 187.947 29.714C188.343 29.366 188.541 28.88 188.541 28.256V27.446L187.497 27.482ZM202.622 32.18C201.65 32.18 200.822 32.006 200.138 31.658C199.454 31.298 198.932 30.746 198.572 30.002C198.212 29.258 198.032 28.304 198.032 27.14C198.032 25.94 198.236 24.962 198.644 24.206C199.052 23.45 199.616 22.892 200.336 22.532C201.068 22.172 201.908 21.992 202.856 21.992C203.528 21.992 204.11 22.058 204.602 22.19C205.106 22.322 205.544 22.478 205.916 22.658L205.124 24.728C204.704 24.56 204.308 24.422 203.936 24.314C203.576 24.206 203.216 24.152 202.856 24.152C202.388 24.152 201.998 24.266 201.686 24.494C201.374 24.71 201.14 25.04 200.984 25.484C200.84 25.916 200.768 26.462 200.768 27.122C200.768 27.77 200.846 28.31 201.002 28.742C201.17 29.162 201.41 29.48 201.722 29.696C202.034 29.9 202.412 30.002 202.856 30.002C203.42 30.002 203.918 29.93 204.35 29.786C204.782 29.63 205.202 29.42 205.61 29.156V31.442C205.202 31.706 204.77 31.892 204.314 32C203.87 32.12 203.306 32.18 202.622 32.18ZM216.8 27.068C216.8 27.884 216.686 28.61 216.458 29.246C216.242 29.882 215.924 30.422 215.504 30.866C215.096 31.298 214.598 31.628 214.01 31.856C213.422 32.072 212.756 32.18 212.012 32.18C211.328 32.18 210.692 32.072 210.104 31.856C209.528 31.628 209.03 31.298 208.61 30.866C208.19 30.422 207.86 29.882 207.62 29.246C207.392 28.61 207.278 27.884 207.278 27.068C207.278 25.976 207.47 25.058 207.854 24.314C208.238 23.558 208.79 22.982 209.51 22.586C210.23 22.19 211.082 21.992 212.066 21.992C212.99 21.992 213.806 22.19 214.514 22.586C215.222 22.982 215.78 23.558 216.188 24.314C216.596 25.058 216.8 25.976 216.8 27.068ZM210.014 27.068C210.014 27.716 210.08 28.262 210.212 28.706C210.356 29.138 210.578 29.468 210.878 29.696C211.178 29.912 211.568 30.02 212.048 30.02C212.528 30.02 212.912 29.912 213.2 29.696C213.5 29.468 213.716 29.138 213.848 28.706C213.992 28.262 214.064 27.716 214.064 27.068C214.064 26.42 213.992 25.88 213.848 25.448C213.716 25.016 213.5 24.692 213.2 24.476C212.9 24.26 212.51 24.152 212.03 24.152C211.322 24.152 210.806 24.398 210.482 24.89C210.17 25.37 210.014 26.096 210.014 27.068ZM224.596 21.992C225.652 21.992 226.498 22.28 227.134 22.856C227.77 23.42 228.088 24.332 228.088 25.592V32H225.406V26.258C225.406 25.55 225.28 25.022 225.028 24.674C224.776 24.314 224.374 24.134 223.822 24.134C223.006 24.134 222.448 24.416 222.148 24.98C221.848 25.532 221.698 26.33 221.698 27.374V32H219.016V22.172H221.068L221.428 23.432H221.572C221.788 23.096 222.052 22.826 222.364 22.622C222.676 22.406 223.024 22.25 223.408 22.154C223.792 22.046 224.188 21.992 224.596 21.992ZM234.986 30.038C235.286 30.038 235.574 30.008 235.85 29.948C236.126 29.888 236.402 29.816 236.678 29.732V31.73C236.39 31.85 236.03 31.952 235.598 32.036C235.178 32.132 234.716 32.18 234.212 32.18C233.624 32.18 233.096 32.084 232.628 31.892C232.172 31.7 231.806 31.37 231.53 30.902C231.266 30.422 231.134 29.762 231.134 28.922V24.188H229.856V23.054L231.332 22.154L232.106 20.084H233.816V22.172H236.57V24.188H233.816V28.922C233.816 29.294 233.924 29.576 234.14 29.768C234.356 29.948 234.638 30.038 234.986 30.038ZM242.683 21.974C244.003 21.974 245.011 22.262 245.707 22.838C246.415 23.402 246.769 24.272 246.769 25.448V32H244.897L244.375 30.668H244.303C244.027 31.016 243.739 31.304 243.439 31.532C243.151 31.76 242.815 31.922 242.431 32.018C242.059 32.126 241.597 32.18 241.045 32.18C240.469 32.18 239.947 32.072 239.479 31.856C239.023 31.628 238.663 31.286 238.399 30.83C238.135 30.362 238.003 29.774 238.003 29.066C238.003 28.022 238.369 27.254 239.101 26.762C239.833 26.258 240.931 25.982 242.395 25.934L244.105 25.88V25.448C244.105 24.932 243.967 24.554 243.691 24.314C243.427 24.074 243.055 23.954 242.575 23.954C242.095 23.954 241.627 24.026 241.171 24.17C240.715 24.302 240.259 24.47 239.803 24.674L238.921 22.856C239.449 22.58 240.031 22.364 240.667 22.208C241.315 22.052 241.987 21.974 242.683 21.974ZM243.061 27.482C242.197 27.506 241.597 27.662 241.261 27.95C240.925 28.238 240.757 28.616 240.757 29.084C240.757 29.492 240.877 29.786 241.117 29.966C241.357 30.134 241.669 30.218 242.053 30.218C242.629 30.218 243.115 30.05 243.511 29.714C243.907 29.366 244.105 28.88 244.105 28.256V27.446L243.061 27.482ZM251.764 27.734H249.622L249.172 19.148H252.214L251.764 27.734ZM249.136 30.74C249.136 30.188 249.286 29.804 249.586 29.588C249.886 29.36 250.252 29.246 250.684 29.246C251.104 29.246 251.464 29.36 251.764 29.588C252.064 29.804 252.214 30.188 252.214 30.74C252.214 31.268 252.064 31.652 251.764 31.892C251.464 32.12 251.104 32.234 250.684 32.234C250.252 32.234 249.886 32.12 249.586 31.892C249.286 31.652 249.136 31.268 249.136 30.74Z" fill="#FE7E02"/>
<rect x="0.5" y="0.5" width="364" height="50" rx="25" stroke="#FE7E02"/>
</svg>
