<svg width="54" height="14" viewBox="0 0 54 14" fill="none" xmlns="http://www.w3.org/2000/svg">
<path d="M8.00739 13H0.699391V0.147999H8.00739V2.074H3.00339V5.35H7.68339V7.276H3.00339V11.056H8.00739V13ZM15.7405 3.064C16.8325 3.064 17.6845 3.346 18.2965 3.91C18.9205 4.474 19.2325 5.386 19.2325 6.646V13H16.9645V7.096C16.9645 6.364 16.8205 5.818 16.5325 5.458C16.2445 5.086 15.7885 4.9 15.1645 4.9C14.2525 4.9 13.6285 5.188 13.2925 5.764C12.9565 6.328 12.7885 7.15 12.7885 8.23V13H10.5205V3.244H12.2665L12.5905 4.522H12.7165C12.9325 4.186 13.1965 3.91 13.5085 3.694C13.8205 3.478 14.1685 3.322 14.5525 3.226C14.9365 3.118 15.3325 3.064 15.7405 3.064ZM25.8493 11.362C26.1373 11.362 26.4133 11.338 26.6773 11.29C26.9413 11.23 27.1873 11.164 27.4153 11.092V12.784C27.1753 12.892 26.8633 12.982 26.4793 13.054C26.0953 13.138 25.6933 13.18 25.2733 13.18C24.7213 13.18 24.2173 13.09 23.7613 12.91C23.3173 12.718 22.9573 12.394 22.6813 11.938C22.4173 11.482 22.2853 10.846 22.2853 10.03V4.954H20.9713V3.964L22.4113 3.172L23.1313 1.102H24.5533V3.244H27.3253V4.954H24.5533V10.012C24.5533 10.468 24.6733 10.81 24.9133 11.038C25.1533 11.254 25.4653 11.362 25.8493 11.362ZM34.4938 3.064C34.6378 3.064 34.8058 3.07 34.9978 3.082C35.1898 3.094 35.3518 3.118 35.4838 3.154L35.2858 5.26C35.1778 5.236 35.0338 5.218 34.8538 5.206C34.6858 5.182 34.5358 5.17 34.4038 5.17C34.0438 5.17 33.6958 5.23 33.3598 5.35C33.0358 5.458 32.7418 5.626 32.4778 5.854C32.2258 6.07 32.0218 6.352 31.8658 6.7C31.7218 7.048 31.6498 7.462 31.6498 7.942V13H29.3818V3.244H31.1278L31.4518 4.936H31.5598C31.7518 4.588 31.9918 4.276 32.2798 4C32.5678 3.712 32.8978 3.484 33.2698 3.316C33.6538 3.148 34.0618 3.064 34.4938 3.064ZM40.8284 3.064C42.0884 3.064 43.0424 3.34 43.6904 3.892C44.3504 4.432 44.6804 5.284 44.6804 6.448V13H43.0784L42.6284 11.65H42.5564C42.2804 11.998 41.9924 12.292 41.6924 12.532C41.4044 12.76 41.0684 12.922 40.6844 13.018C40.3124 13.126 39.8564 13.18 39.3164 13.18C38.7404 13.18 38.2184 13.072 37.7504 12.856C37.2944 12.64 36.9344 12.31 36.6704 11.866C36.4064 11.41 36.2744 10.84 36.2744 10.156C36.2744 9.148 36.6404 8.392 37.3724 7.888C38.1164 7.372 39.2384 7.09 40.7384 7.042L42.4304 6.988V6.502C42.4304 5.878 42.2804 5.434 41.9804 5.17C41.6804 4.906 41.2604 4.774 40.7204 4.774C40.2284 4.774 39.7544 4.846 39.2984 4.99C38.8424 5.134 38.3984 5.302 37.9664 5.494L37.2464 3.91C37.7264 3.658 38.2724 3.454 38.8844 3.298C39.5084 3.142 40.1564 3.064 40.8284 3.064ZM41.2424 8.428C40.2464 8.464 39.5564 8.638 39.1724 8.95C38.7884 9.25 38.5964 9.658 38.5964 10.174C38.5964 10.63 38.7344 10.96 39.0104 11.164C39.2864 11.368 39.6404 11.47 40.0724 11.47C40.7324 11.47 41.2904 11.284 41.7464 10.912C42.2024 10.528 42.4304 9.964 42.4304 9.22V8.392L41.2424 8.428ZM52.6345 3.064C52.7785 3.064 52.9465 3.07 53.1385 3.082C53.3305 3.094 53.4925 3.118 53.6245 3.154L53.4265 5.26C53.3185 5.236 53.1745 5.218 52.9945 5.206C52.8265 5.182 52.6765 5.17 52.5445 5.17C52.1845 5.17 51.8365 5.23 51.5005 5.35C51.1765 5.458 50.8825 5.626 50.6185 5.854C50.3665 6.07 50.1625 6.352 50.0065 6.7C49.8625 7.048 49.7905 7.462 49.7905 7.942V13H47.5225V3.244H49.2685L49.5925 4.936H49.7005C49.8925 4.588 50.1325 4.276 50.4205 4C50.7085 3.712 51.0385 3.484 51.4105 3.316C51.7945 3.148 52.2025 3.064 52.6345 3.064Z" fill="#4088CB"/>
</svg>
