<svg width="61" height="18" viewBox="0 0 61 18" fill="none" xmlns="http://www.w3.org/2000/svg">
<path d="M0.104664 13V0.147999H2.40866V11.056H7.77267V13H0.104664ZM18.4971 8.104C18.4971 8.92 18.3891 9.64 18.1731 10.264C17.9571 10.888 17.6451 11.422 17.2371 11.866C16.8411 12.298 16.3491 12.628 15.7611 12.856C15.1851 13.072 14.5431 13.18 13.8351 13.18C13.1631 13.18 12.5451 13.072 11.9811 12.856C11.4171 12.628 10.9251 12.298 10.5051 11.866C10.0971 11.422 9.77915 10.888 9.55115 10.264C9.32315 9.64 9.20915 8.92 9.20915 8.104C9.20915 7.024 9.39515 6.112 9.76715 5.368C10.1391 4.612 10.6731 4.042 11.3691 3.658C12.0771 3.262 12.9111 3.064 13.8711 3.064C14.7831 3.064 15.5811 3.262 16.2651 3.658C16.9611 4.042 17.5071 4.612 17.9031 5.368C18.2991 6.112 18.4971 7.024 18.4971 8.104ZM11.5311 8.104C11.5311 8.788 11.6091 9.376 11.7651 9.868C11.9331 10.348 12.1851 10.714 12.5211 10.966C12.8691 11.218 13.3131 11.344 13.8531 11.344C14.4051 11.344 14.8491 11.218 15.1851 10.966C15.5331 10.714 15.7851 10.348 15.9411 9.868C16.0971 9.376 16.1751 8.788 16.1751 8.104C16.1751 7.408 16.0911 6.826 15.9231 6.358C15.7671 5.878 15.5151 5.518 15.1671 5.278C14.8311 5.026 14.3931 4.9 13.8531 4.9C13.0371 4.9 12.4431 5.176 12.0711 5.728C11.7111 6.28 11.5311 7.072 11.5311 8.104ZM24.1178 3.064C24.7298 3.064 25.2818 3.184 25.7738 3.424C26.2658 3.664 26.6798 4.024 27.0158 4.504H27.1058L27.3218 3.244H29.2118V13.072C29.2118 13.996 29.0378 14.77 28.6898 15.394C28.3418 16.03 27.8198 16.51 27.1238 16.834C26.4278 17.158 25.5578 17.32 24.5138 17.32C23.8178 17.32 23.1758 17.272 22.5878 17.176C21.9998 17.092 21.4418 16.942 20.9138 16.726V14.854C21.2858 15.01 21.6698 15.142 22.0658 15.25C22.4738 15.37 22.8938 15.46 23.3258 15.52C23.7578 15.58 24.2018 15.61 24.6578 15.61C25.4018 15.61 25.9658 15.4 26.3498 14.98C26.7458 14.56 26.9438 13.96 26.9438 13.18V12.928C26.9438 12.748 26.9498 12.538 26.9618 12.298C26.9858 12.058 27.0038 11.866 27.0158 11.722H26.9438C26.6078 12.226 26.1998 12.598 25.7198 12.838C25.2398 13.066 24.6878 13.18 24.0638 13.18C22.8758 13.18 21.9458 12.736 21.2738 11.848C20.6018 10.96 20.2658 9.724 20.2658 8.14C20.2658 7.072 20.4158 6.16 20.7158 5.404C21.0278 4.648 21.4718 4.072 22.0478 3.676C22.6238 3.268 23.3138 3.064 24.1178 3.064ZM24.7118 4.918C24.2558 4.918 23.8658 5.044 23.5418 5.296C23.2298 5.536 22.9898 5.896 22.8218 6.376C22.6658 6.856 22.5878 7.456 22.5878 8.176C22.5878 9.232 22.7678 10.03 23.1278 10.57C23.4878 11.11 24.0278 11.38 24.7478 11.38C25.1558 11.38 25.5038 11.332 25.7918 11.236C26.0798 11.128 26.3138 10.96 26.4938 10.732C26.6858 10.492 26.8298 10.192 26.9258 9.832C27.0218 9.46 27.0698 9.016 27.0698 8.5V8.158C27.0698 7.378 26.9858 6.754 26.8178 6.286C26.6498 5.806 26.3918 5.458 26.0438 5.242C25.7078 5.026 25.2638 4.918 24.7118 4.918ZM40.8214 8.104C40.8214 8.92 40.7134 9.64 40.4974 10.264C40.2814 10.888 39.9694 11.422 39.5614 11.866C39.1654 12.298 38.6734 12.628 38.0854 12.856C37.5094 13.072 36.8674 13.18 36.1594 13.18C35.4874 13.18 34.8694 13.072 34.3054 12.856C33.7414 12.628 33.2494 12.298 32.8294 11.866C32.4214 11.422 32.1034 10.888 31.8754 10.264C31.6474 9.64 31.5334 8.92 31.5334 8.104C31.5334 7.024 31.7194 6.112 32.0914 5.368C32.4634 4.612 32.9974 4.042 33.6934 3.658C34.4014 3.262 35.2354 3.064 36.1954 3.064C37.1074 3.064 37.9054 3.262 38.5894 3.658C39.2854 4.042 39.8314 4.612 40.2274 5.368C40.6234 6.112 40.8214 7.024 40.8214 8.104ZM33.8554 8.104C33.8554 8.788 33.9334 9.376 34.0894 9.868C34.2574 10.348 34.5094 10.714 34.8454 10.966C35.1934 11.218 35.6374 11.344 36.1774 11.344C36.7294 11.344 37.1734 11.218 37.5094 10.966C37.8574 10.714 38.1094 10.348 38.2654 9.868C38.4214 9.376 38.4994 8.788 38.4994 8.104C38.4994 7.408 38.4154 6.826 38.2474 6.358C38.0914 5.878 37.8394 5.518 37.4914 5.278C37.1554 5.026 36.7174 4.9 36.1774 4.9C35.3614 4.9 34.7674 5.176 34.3954 5.728C34.0354 6.28 33.8554 7.072 33.8554 8.104ZM51.824 3.244V13H50.042L49.736 11.74H49.628C49.424 12.076 49.16 12.352 48.836 12.568C48.512 12.772 48.158 12.922 47.774 13.018C47.39 13.126 46.994 13.18 46.586 13.18C45.866 13.18 45.242 13.054 44.714 12.802C44.186 12.55 43.784 12.166 43.508 11.65C43.232 11.122 43.094 10.444 43.094 9.616V3.244H45.362V9.166C45.362 9.886 45.506 10.432 45.794 10.804C46.082 11.164 46.538 11.344 47.162 11.344C47.774 11.344 48.254 11.218 48.602 10.966C48.95 10.702 49.196 10.324 49.34 9.832C49.484 9.34 49.556 8.734 49.556 8.014V3.244H51.824ZM58.4948 11.362C58.7828 11.362 59.0588 11.338 59.3228 11.29C59.5868 11.23 59.8328 11.164 60.0608 11.092V12.784C59.8208 12.892 59.5088 12.982 59.1248 13.054C58.7408 13.138 58.3388 13.18 57.9188 13.18C57.3668 13.18 56.8628 13.09 56.4068 12.91C55.9628 12.718 55.6028 12.394 55.3268 11.938C55.0628 11.482 54.9308 10.846 54.9308 10.03V4.954H53.6168V3.964L55.0568 3.172L55.7768 1.102H57.1988V3.244H59.9708V4.954H57.1988V10.012C57.1988 10.468 57.3188 10.81 57.5588 11.038C57.7988 11.254 58.1108 11.362 58.4948 11.362Z" fill="#4088CB"/>
</svg>
