<svg width="359" height="47" viewBox="0 0 359 47" fill="none" xmlns="http://www.w3.org/2000/svg">
<rect width="359" height="47" rx="12" fill="#4088CB"/>
<rect width="359" height="47" rx="12" fill="url(#paint0_linear_9_1002)"/>
<path d="M153.386 30V17.436H159.326C159.914 17.436 160.442 17.538 160.91 17.742C161.378 17.934 161.774 18.204 162.098 18.552C162.434 18.9 162.692 19.326 162.872 19.83C163.052 20.322 163.142 20.862 163.142 21.45C163.142 22.05 163.052 22.596 162.872 23.088C162.692 23.58 162.434 24 162.098 24.348C161.774 24.696 161.378 24.972 160.91 25.176C160.442 25.368 159.914 25.464 159.326 25.464H156.122V30H153.386ZM156.122 23.088H159.002C159.41 23.088 159.728 22.986 159.956 22.782C160.196 22.566 160.316 22.254 160.316 21.846V21.054C160.316 20.646 160.196 20.34 159.956 20.136C159.728 19.92 159.41 19.812 159.002 19.812H156.122V23.088ZM168.537 30.216C167.841 30.216 167.217 30.102 166.665 29.874C166.125 29.646 165.663 29.316 165.279 28.884C164.907 28.452 164.619 27.93 164.415 27.318C164.211 26.706 164.109 26.022 164.109 25.266C164.109 24.51 164.211 23.826 164.415 23.214C164.619 22.602 164.907 22.086 165.279 21.666C165.663 21.234 166.125 20.904 166.665 20.676C167.217 20.448 167.841 20.334 168.537 20.334C169.233 20.334 169.851 20.448 170.391 20.676C170.943 20.904 171.405 21.234 171.777 21.666C172.161 22.086 172.455 22.602 172.659 23.214C172.863 23.826 172.965 24.51 172.965 25.266C172.965 26.022 172.863 26.706 172.659 27.318C172.455 27.93 172.161 28.452 171.777 28.884C171.405 29.316 170.943 29.646 170.391 29.874C169.851 30.102 169.233 30.216 168.537 30.216ZM168.537 28.11C169.065 28.11 169.473 27.948 169.761 27.624C170.049 27.3 170.193 26.838 170.193 26.238V24.312C170.193 23.712 170.049 23.25 169.761 22.926C169.473 22.602 169.065 22.44 168.537 22.44C168.009 22.44 167.601 22.602 167.313 22.926C167.025 23.25 166.881 23.712 166.881 24.312V26.238C166.881 26.838 167.025 27.3 167.313 27.624C167.601 27.948 168.009 28.11 168.537 28.11ZM178.067 30.216C177.155 30.216 176.387 30.072 175.763 29.784C175.139 29.484 174.581 29.064 174.089 28.524L175.655 26.94C175.991 27.312 176.363 27.606 176.771 27.822C177.179 28.038 177.641 28.146 178.157 28.146C178.685 28.146 179.051 28.068 179.255 27.912C179.459 27.744 179.561 27.522 179.561 27.246C179.561 26.802 179.243 26.538 178.607 26.454L177.581 26.328C175.457 26.064 174.395 25.092 174.395 23.412C174.395 22.956 174.479 22.542 174.647 22.17C174.827 21.786 175.073 21.462 175.385 21.198C175.709 20.922 176.093 20.712 176.537 20.568C176.993 20.412 177.503 20.334 178.067 20.334C178.559 20.334 178.991 20.37 179.363 20.442C179.747 20.502 180.083 20.598 180.371 20.73C180.671 20.85 180.941 21.006 181.181 21.198C181.433 21.378 181.679 21.582 181.919 21.81L180.389 23.376C180.089 23.076 179.747 22.842 179.363 22.674C178.991 22.494 178.607 22.404 178.211 22.404C177.755 22.404 177.431 22.476 177.239 22.62C177.047 22.764 176.951 22.956 176.951 23.196C176.951 23.448 177.017 23.646 177.149 23.79C177.293 23.922 177.557 24.018 177.941 24.078L179.003 24.222C181.079 24.498 182.117 25.446 182.117 27.066C182.117 27.522 182.021 27.942 181.829 28.326C181.637 28.71 181.361 29.046 181.001 29.334C180.653 29.61 180.227 29.826 179.723 29.982C179.231 30.138 178.679 30.216 178.067 30.216ZM187.105 30C186.181 30 185.479 29.766 184.999 29.298C184.531 28.83 184.297 28.146 184.297 27.246V22.62H182.965V20.55H183.631C183.991 20.55 184.237 20.466 184.369 20.298C184.501 20.118 184.567 19.866 184.567 19.542V17.994H186.961V20.55H188.833V22.62H186.961V27.93H188.689V30H187.105ZM197.667 30C197.187 30 196.785 29.85 196.461 29.55C196.149 29.25 195.951 28.848 195.867 28.344H195.759C195.615 28.956 195.297 29.424 194.805 29.748C194.313 30.06 193.707 30.216 192.987 30.216C192.039 30.216 191.313 29.964 190.809 29.46C190.305 28.956 190.053 28.29 190.053 27.462C190.053 26.466 190.413 25.728 191.133 25.248C191.865 24.756 192.855 24.51 194.103 24.51H195.597V23.916C195.597 23.46 195.477 23.1 195.237 22.836C194.997 22.56 194.595 22.422 194.031 22.422C193.503 22.422 193.083 22.536 192.771 22.764C192.459 22.992 192.201 23.25 191.997 23.538L190.413 22.134C190.797 21.57 191.277 21.132 191.853 20.82C192.441 20.496 193.233 20.334 194.229 20.334C195.573 20.334 196.581 20.628 197.253 21.216C197.925 21.804 198.261 22.662 198.261 23.79V27.93H199.143V30H197.667ZM193.977 28.362C194.421 28.362 194.799 28.266 195.111 28.074C195.435 27.882 195.597 27.57 195.597 27.138V26.022H194.301C193.257 26.022 192.735 26.376 192.735 27.084V27.354C192.735 27.702 192.843 27.96 193.059 28.128C193.275 28.284 193.581 28.362 193.977 28.362ZM200.931 30V20.55H203.595V22.602H203.685C203.733 22.338 203.817 22.086 203.937 21.846C204.057 21.594 204.213 21.372 204.405 21.18C204.609 20.988 204.849 20.838 205.125 20.73C205.401 20.61 205.725 20.55 206.097 20.55H206.565V23.034H205.899C205.119 23.034 204.537 23.136 204.153 23.34C203.781 23.544 203.595 23.922 203.595 24.474V30H200.931Z" fill="white"/>
<defs>
<linearGradient id="paint0_linear_9_1002" x1="5.08009e-07" y1="23.9608" x2="359" y2="23.9608" gradientUnits="userSpaceOnUse">
<stop stop-color="#FF6489"/>
<stop offset="1" stop-color="#F9B24E"/>
</linearGradient>
</defs>
</svg>
