<svg width="364" height="47" viewBox="0 0 364 47" fill="none" xmlns="http://www.w3.org/2000/svg">
<rect width="364" height="47" rx="12" fill="#4088CB"/>
<rect width="364" height="47" rx="12" fill="url(#paint0_linear_9_1055)"/>
<path d="M140.122 30H137.386V17.436H143.344C143.92 17.436 144.442 17.532 144.91 17.724C145.378 17.916 145.774 18.192 146.098 18.552C146.434 18.9 146.692 19.32 146.872 19.812C147.052 20.304 147.142 20.85 147.142 21.45C147.142 22.302 146.95 23.046 146.566 23.682C146.194 24.318 145.624 24.78 144.856 25.068L147.322 30H144.28L142.084 25.392H140.122V30ZM143.002 23.088C143.41 23.088 143.728 22.986 143.956 22.782C144.196 22.566 144.316 22.254 144.316 21.846V21.054C144.316 20.646 144.196 20.34 143.956 20.136C143.728 19.92 143.41 19.812 143.002 19.812H140.122V23.088H143.002ZM153.049 30.216C152.329 30.216 151.687 30.102 151.123 29.874C150.559 29.634 150.079 29.304 149.683 28.884C149.299 28.452 149.005 27.93 148.801 27.318C148.609 26.706 148.513 26.022 148.513 25.266C148.513 24.522 148.609 23.85 148.801 23.25C148.993 22.638 149.275 22.116 149.647 21.684C150.031 21.252 150.499 20.922 151.051 20.694C151.603 20.454 152.233 20.334 152.941 20.334C153.721 20.334 154.387 20.466 154.939 20.73C155.503 20.994 155.959 21.348 156.307 21.792C156.667 22.236 156.925 22.752 157.081 23.34C157.249 23.916 157.333 24.522 157.333 25.158V25.95H151.267V26.094C151.267 26.718 151.435 27.216 151.771 27.588C152.107 27.948 152.635 28.128 153.355 28.128C153.907 28.128 154.357 28.02 154.705 27.804C155.053 27.576 155.377 27.306 155.677 26.994L157.009 28.65C156.589 29.142 156.037 29.526 155.353 29.802C154.681 30.078 153.913 30.216 153.049 30.216ZM152.995 22.296C152.455 22.296 152.029 22.476 151.717 22.836C151.417 23.184 151.267 23.652 151.267 24.24V24.384H154.579V24.222C154.579 23.646 154.447 23.184 154.183 22.836C153.931 22.476 153.535 22.296 152.995 22.296ZM162.419 30.216C161.507 30.216 160.739 30.072 160.115 29.784C159.491 29.484 158.933 29.064 158.441 28.524L160.007 26.94C160.343 27.312 160.715 27.606 161.123 27.822C161.531 28.038 161.993 28.146 162.509 28.146C163.037 28.146 163.403 28.068 163.607 27.912C163.811 27.744 163.913 27.522 163.913 27.246C163.913 26.802 163.595 26.538 162.959 26.454L161.933 26.328C159.809 26.064 158.747 25.092 158.747 23.412C158.747 22.956 158.831 22.542 158.999 22.17C159.179 21.786 159.425 21.462 159.737 21.198C160.061 20.922 160.445 20.712 160.889 20.568C161.345 20.412 161.855 20.334 162.419 20.334C162.911 20.334 163.343 20.37 163.715 20.442C164.099 20.502 164.435 20.598 164.723 20.73C165.023 20.85 165.293 21.006 165.533 21.198C165.785 21.378 166.031 21.582 166.271 21.81L164.741 23.376C164.441 23.076 164.099 22.842 163.715 22.674C163.343 22.494 162.959 22.404 162.563 22.404C162.107 22.404 161.783 22.476 161.591 22.62C161.399 22.764 161.303 22.956 161.303 23.196C161.303 23.448 161.369 23.646 161.501 23.79C161.645 23.922 161.909 24.018 162.293 24.078L163.355 24.222C165.431 24.498 166.469 25.446 166.469 27.066C166.469 27.522 166.373 27.942 166.181 28.326C165.989 28.71 165.713 29.046 165.353 29.334C165.005 29.61 164.579 29.826 164.075 29.982C163.583 30.138 163.031 30.216 162.419 30.216ZM168.285 20.55H170.949V22.134H171.039C171.171 21.606 171.471 21.174 171.939 20.838C172.419 20.502 172.965 20.334 173.577 20.334C174.777 20.334 175.683 20.754 176.295 21.594C176.907 22.434 177.213 23.658 177.213 25.266C177.213 26.874 176.907 28.104 176.295 28.956C175.683 29.796 174.777 30.216 173.577 30.216C173.265 30.216 172.971 30.168 172.695 30.072C172.419 29.988 172.167 29.868 171.939 29.712C171.723 29.544 171.537 29.352 171.381 29.136C171.225 28.908 171.111 28.668 171.039 28.416H170.949V33.6H168.285V20.55ZM172.695 28.056C173.199 28.056 173.613 27.882 173.937 27.534C174.273 27.174 174.441 26.694 174.441 26.094V24.456C174.441 23.856 174.273 23.382 173.937 23.034C173.613 22.674 173.199 22.494 172.695 22.494C172.191 22.494 171.771 22.62 171.435 22.872C171.111 23.112 170.949 23.448 170.949 23.88V26.67C170.949 27.102 171.111 27.444 171.435 27.696C171.771 27.936 172.191 28.056 172.695 28.056ZM183.07 30.216C182.374 30.216 181.75 30.102 181.198 29.874C180.658 29.646 180.196 29.316 179.812 28.884C179.44 28.452 179.152 27.93 178.948 27.318C178.744 26.706 178.642 26.022 178.642 25.266C178.642 24.51 178.744 23.826 178.948 23.214C179.152 22.602 179.44 22.086 179.812 21.666C180.196 21.234 180.658 20.904 181.198 20.676C181.75 20.448 182.374 20.334 183.07 20.334C183.766 20.334 184.384 20.448 184.924 20.676C185.476 20.904 185.938 21.234 186.31 21.666C186.694 22.086 186.988 22.602 187.192 23.214C187.396 23.826 187.498 24.51 187.498 25.266C187.498 26.022 187.396 26.706 187.192 27.318C186.988 27.93 186.694 28.452 186.31 28.884C185.938 29.316 185.476 29.646 184.924 29.874C184.384 30.102 183.766 30.216 183.07 30.216ZM183.07 28.11C183.598 28.11 184.006 27.948 184.294 27.624C184.582 27.3 184.726 26.838 184.726 26.238V24.312C184.726 23.712 184.582 23.25 184.294 22.926C184.006 22.602 183.598 22.44 183.07 22.44C182.542 22.44 182.134 22.602 181.846 22.926C181.558 23.25 181.414 23.712 181.414 24.312V26.238C181.414 26.838 181.558 27.3 181.846 27.624C182.134 27.948 182.542 28.11 183.07 28.11ZM189.396 30V20.55H192.06V22.152H192.168C192.336 21.66 192.63 21.234 193.05 20.874C193.47 20.514 194.052 20.334 194.796 20.334C195.768 20.334 196.5 20.658 196.992 21.306C197.496 21.954 197.748 22.878 197.748 24.078V30H195.084V24.294C195.084 23.682 194.988 23.232 194.796 22.944C194.604 22.644 194.262 22.494 193.77 22.494C193.554 22.494 193.344 22.524 193.14 22.584C192.936 22.632 192.75 22.716 192.582 22.836C192.426 22.956 192.3 23.106 192.204 23.286C192.108 23.454 192.06 23.652 192.06 23.88V30H189.396ZM205.915 28.416H205.825C205.753 28.668 205.639 28.908 205.483 29.136C205.327 29.352 205.135 29.544 204.907 29.712C204.691 29.868 204.439 29.988 204.151 30.072C203.875 30.168 203.587 30.216 203.287 30.216C202.087 30.216 201.181 29.796 200.569 28.956C199.957 28.104 199.651 26.874 199.651 25.266C199.651 23.658 199.957 22.434 200.569 21.594C201.181 20.754 202.087 20.334 203.287 20.334C203.899 20.334 204.439 20.502 204.907 20.838C205.387 21.174 205.693 21.606 205.825 22.134H205.915V16.68H208.579V30H205.915V28.416ZM204.169 28.056C204.673 28.056 205.087 27.936 205.411 27.696C205.747 27.444 205.915 27.102 205.915 26.67V23.88C205.915 23.448 205.747 23.112 205.411 22.872C205.087 22.62 204.673 22.494 204.169 22.494C203.665 22.494 203.245 22.674 202.909 23.034C202.585 23.382 202.423 23.856 202.423 24.456V26.094C202.423 26.694 202.585 27.174 202.909 27.534C203.245 27.882 203.665 28.056 204.169 28.056ZM215.012 30.216C214.292 30.216 213.65 30.102 213.086 29.874C212.522 29.634 212.042 29.304 211.646 28.884C211.262 28.452 210.968 27.93 210.764 27.318C210.572 26.706 210.476 26.022 210.476 25.266C210.476 24.522 210.572 23.85 210.764 23.25C210.956 22.638 211.238 22.116 211.61 21.684C211.994 21.252 212.462 20.922 213.014 20.694C213.566 20.454 214.196 20.334 214.904 20.334C215.684 20.334 216.35 20.466 216.902 20.73C217.466 20.994 217.922 21.348 218.27 21.792C218.63 22.236 218.888 22.752 219.044 23.34C219.212 23.916 219.296 24.522 219.296 25.158V25.95H213.23V26.094C213.23 26.718 213.398 27.216 213.734 27.588C214.07 27.948 214.598 28.128 215.318 28.128C215.87 28.128 216.32 28.02 216.668 27.804C217.016 27.576 217.34 27.306 217.64 26.994L218.972 28.65C218.552 29.142 218 29.526 217.316 29.802C216.644 30.078 215.876 30.216 215.012 30.216ZM214.958 22.296C214.418 22.296 213.992 22.476 213.68 22.836C213.38 23.184 213.23 23.652 213.23 24.24V24.384H216.542V24.222C216.542 23.646 216.41 23.184 216.146 22.836C215.894 22.476 215.498 22.296 214.958 22.296ZM221.178 30V20.55H223.842V22.602H223.932C223.98 22.338 224.064 22.086 224.184 21.846C224.304 21.594 224.46 21.372 224.652 21.18C224.856 20.988 225.096 20.838 225.372 20.73C225.648 20.61 225.972 20.55 226.344 20.55H226.812V23.034H226.146C225.366 23.034 224.784 23.136 224.4 23.34C224.028 23.544 223.842 23.922 223.842 24.474V30H221.178Z" fill="white"/>
<defs>
<linearGradient id="paint0_linear_9_1055" x1="5.15084e-07" y1="23.9608" x2="364" y2="23.9608" gradientUnits="userSpaceOnUse">
<stop stop-color="#FF6489"/>
<stop offset="1" stop-color="#F9B24E"/>
</linearGradient>
</defs>
</svg>
